<svg id="Layer_1" data-name="Layer 1" xmlns="http://www.w3.org/2000/svg" viewBox="0 0 44.93 44.93"><defs><style>.cls-1{fill:none;}.cls-2{fill:#f0871e;}</style></defs><title>email</title><polygon class="cls-1" points="10.45 16.44 10.45 31.02 34.48 31.02 34.48 16.44 22.42 26.16 10.45 16.44"/><polygon class="cls-1" points="34.39 13.92 10.45 13.92 22.42 23.64 34.39 13.92"/><polygon class="cls-1" points="10.51 16.45 10.51 31 34.51 31 34.51 16.45 22.47 26.15 10.51 16.45"/><polygon class="cls-1" points="34.42 13.93 10.51 13.93 22.47 23.64 34.42 13.93"/><path class="cls-2" d="M22.55,0A22.47,22.47,0,1,0,45,22.5,22.47,22.47,0,0,0,22.55,0ZM34.5,14l-12,9.71L10.59,14ZM34.59,31h-24V16.48l12,9.71,12-9.71V31Z" transform="translate(-0.08 -0.03)"/></svg>