<svg id="Layer_1" data-name="Layer 1" xmlns="http://www.w3.org/2000/svg" viewBox="0 0 44.9 44.9"><defs><style>.cls-1{fill:#53bbea;}</style></defs><title>twitter</title><path class="cls-1" d="M22.55,0A22.45,22.45,0,1,0,45,22.45,22.46,22.46,0,0,0,22.55,0ZM33.86,18A15.19,15.19,0,0,1,18.6,34a15.36,15.36,0,0,1-8.26-2.42,10.44,10.44,0,0,0,7.9-2.24,5.43,5.43,0,0,1-5-3.68,5.48,5.48,0,0,0,2.42-.09,5.35,5.35,0,0,1-4.31-5.3,5.39,5.39,0,0,0,2.42.63,5.32,5.32,0,0,1-1.62-7.18,14.93,14.93,0,0,0,11,5.57,5.37,5.37,0,0,1,9.16-4.85,14.06,14.06,0,0,0,3.41-1.26,5.15,5.15,0,0,1-2.33,3,10.9,10.9,0,0,0,3.05-.81A10.52,10.52,0,0,1,33.86,18Z" transform="translate(-0.1)"/></svg>